<?xml version="1.0" encoding="UTF-8"?>
<svg version="1.1" xmlns="http://www.w3.org/2000/svg" width="1024" height="1024">
<path d="M0 0 C0.90443848 -0.0157608 1.80887695 -0.03152161 2.74072266 -0.04776001 C4.18777588 -0.03257828 4.18777588 -0.03257828 5.6640625 -0.01708984 C7.16718994 -0.02426529 7.16718994 -0.02426529 8.70068359 -0.03158569 C10.81544569 -0.03498212 12.93026048 -0.02579775 15.04492188 -0.00488281 C18.27853671 0.02188552 21.5086804 -0.00464027 24.7421875 -0.03662109 C26.79948681 -0.03331695 28.85678397 -0.02691063 30.9140625 -0.01708984 C31.87876465 -0.027211 32.8434668 -0.03733215 33.83740234 -0.04776001 C38.1361284 0.02714987 40.66198422 0.26892193 44.39550781 2.51977539 C47.16610935 7.09541169 46.998261 11.08801676 46.9609375 16.34619141 C46.97368713 17.37758743 46.98643677 18.40898346 46.99957275 19.47163391 C47.03585957 22.75952712 47.03858175 26.04639681 47.0390625 29.33447266 C47.06065992 32.6328786 47.08908776 35.93112899 47.12139893 39.22944641 C47.13919227 41.28049045 47.14944767 43.33161606 47.15155029 45.38273621 C47.15535706 46.30742203 47.15916382 47.23210785 47.16308594 48.18481445 C47.16354919 49.00024216 47.16401245 49.81566986 47.16448975 50.6558075 C47.16362991 52.72151773 47.16362991 52.72151773 48.2890625 54.64697266 C52.21545953 54.05731112 55.90080858 53.24654194 59.68359375 52.04541016 C60.70831787 51.72362793 61.73304199 51.4018457 62.78881836 51.0703125 C63.88202393 50.72436035 64.97522949 50.3784082 66.1015625 50.02197266 C132.40339179 29.39473688 199.0091873 20.6027464 268.2890625 26.64697266 C269.33030273 26.73285645 270.37154297 26.81874023 271.44433594 26.90722656 C311.50040107 30.34115788 350.98384593 40.22537526 389.01611328 52.92602539 C393.19938757 54.54148958 393.19938757 54.54148958 397.2890625 53.64697266 C397.29120003 52.76160576 397.29120003 52.76160576 397.29338074 51.85835266 C397.31308167 45.70970307 397.36736352 39.56204571 397.44165039 33.41381836 C397.46483392 31.11994548 397.47922691 28.82596611 397.48461914 26.53198242 C397.4939057 23.23239749 397.53489238 19.93448852 397.58203125 16.63525391 C397.5780986 15.61111893 397.57416595 14.58698395 397.57011414 13.53181458 C397.66112386 9.08110989 397.8580959 6.36249377 400.18481445 2.49951172 C404.6789258 -0.18246366 408.51721264 -0.05266839 413.6640625 0.01806641 C415.16718994 0.01444847 415.16718994 0.01444847 416.70068359 0.01075745 C418.81547002 0.01173522 420.93028225 0.02511204 423.04492188 0.05004883 C426.27823002 0.08435771 429.50880449 0.07070328 432.7421875 0.05126953 C434.79949078 0.05816819 436.85678701 0.06784076 438.9140625 0.08056641 C440.36111572 0.0731266 440.36111572 0.0731266 441.83740234 0.0655365 C443.19406006 0.089291 443.19406006 0.089291 444.578125 0.11352539 C445.76462646 0.12282326 445.76462646 0.12282326 446.97509766 0.13230896 C450.38595927 0.89094047 451.87654458 2.10458844 454.2890625 4.64697266 C455.03786824 7.60249094 454.95782508 10.50020842 454.9148407 13.53578186 C454.92178524 14.44363149 454.92872979 15.35148111 454.93588477 16.28684133 C454.95317949 19.3357749 454.93482145 22.38345909 454.91674805 25.43237305 C454.92192467 27.61526602 454.92932295 29.7981547 454.93878174 31.98103333 C454.95436715 36.68470201 454.95415738 41.38801443 454.94177818 46.09169197 C454.92228301 53.52384013 454.93740552 60.95566978 454.95722961 68.38780212 C454.98285599 79.47029871 454.98860954 90.55267528 454.98254708 101.63519727 C454.97073343 123.35752054 454.99376191 145.07978408 455.03520423 166.80207247 C455.04830971 174.19574478 455.04951394 181.58929891 455.0410713 188.98297703 C455.03745641 193.57523032 455.0417349 198.16745318 455.0479126 202.75970268 C455.04900165 204.89508551 455.04661605 207.03047324 455.0405674 209.16584778 C455.03272734 212.07236982 455.03697263 214.97862951 455.04423523 217.88514709 C455.0388899 218.73747061 455.03354456 219.58979413 455.02803725 220.46794564 C455.0501014 224.37937428 455.06933172 226.31737649 457.2890625 229.64697266 C459.65791913 230.1069391 459.65791913 230.1069391 462.41015625 230.05322266 C463.42787109 230.07513672 464.44558594 230.09705078 465.49414062 230.11962891 C466.56083984 230.12865234 467.62753906 230.13767578 468.7265625 230.14697266 C470.82958348 230.16482729 472.93254563 230.19550522 475.03515625 230.24072266 C475.97029053 230.2478125 476.9054248 230.25490234 477.86889648 230.26220703 C480.2890625 230.64697266 480.2890625 230.64697266 482.0925293 231.87573242 C483.64335461 234.17143486 483.67636378 235.63313872 483.6875 238.39306641 C483.69136719 239.3128125 483.69523438 240.23255859 483.69921875 241.18017578 C483.68181641 242.61780273 483.68181641 242.61780273 483.6640625 244.08447266 C483.67566406 245.03902344 483.68726563 245.99357422 483.69921875 246.97705078 C483.69535156 247.89808594 483.69148437 248.81912109 483.6875 249.76806641 C483.68411621 250.60781006 483.68073242 251.44755371 483.67724609 252.31274414 C483.15643876 255.44446673 482.68228893 256.49461217 480.2890625 258.64697266 C476.98980351 259.27218712 473.70622986 259.18218595 470.35742188 259.14868164 C469.33767776 259.15408463 468.31793365 259.15948761 467.26728821 259.16505432 C463.88883646 259.17758491 460.51122968 259.16102125 457.1328125 259.14306641 C454.79016068 259.14322129 452.44750859 259.14470855 450.1048584 259.1474762 C445.19202363 259.14886214 440.27948011 259.13626919 435.36669922 259.11352539 C429.06129006 259.08514052 422.75636508 259.08787565 416.4509201 259.1006155 C411.61256761 259.10756203 406.77432753 259.09979509 401.93598938 259.08735847 C399.6107069 259.082834 397.28541239 259.08251582 394.96012878 259.08642387 C391.71340085 259.08932598 388.46734612 259.07287649 385.22070312 259.05102539 C383.77121025 259.05777786 383.77121025 259.05777786 382.29243469 259.06466675 C381.40916 259.05476212 380.52588531 259.04485748 379.61584473 259.03465271 C378.84820045 259.03222281 378.08055618 259.02979292 377.28964996 259.02728939 C374.74737515 258.54399652 373.85576331 257.67157879 372.2890625 255.64697266 C371.90087891 253.33447266 371.90087891 253.33447266 371.890625 250.64697266 C371.88675781 249.67759766 371.88289063 248.70822266 371.87890625 247.70947266 C371.89630859 246.19353516 371.89630859 246.19353516 371.9140625 244.64697266 C371.90246094 243.63634766 371.89085937 242.62572266 371.87890625 241.58447266 C371.88277344 240.61509766 371.88664062 239.64572266 371.890625 238.64697266 C371.89400879 237.76009766 371.89739258 236.87322266 371.90087891 235.95947266 C372.2890625 233.64697266 372.2890625 233.64697266 373.49487305 231.86645508 C375.87447547 230.24907664 377.52868892 230.21808172 380.39453125 230.13525391 C381.37744141 230.09980469 382.36035156 230.06435547 383.37304688 230.02783203 C384.39720703 230.00527344 385.42136719 229.98271484 386.4765625 229.95947266 C387.51232422 229.9253125 388.54808594 229.89115234 389.61523438 229.85595703 C392.1730691 229.77344623 394.73055973 229.70430694 397.2890625 229.64697266 C396.82401629 222.17211799 395.69331582 215.22732074 393.6640625 208.02197266 C393.26646729 206.59582642 393.26646729 206.59582642 392.86083984 205.14086914 C385.42045872 179.26873337 372.01351364 156.75109548 354.2890625 136.64697266 C353.639375 135.87482422 352.9896875 135.10267578 352.3203125 134.30712891 C348.33754647 129.59117186 344.04827484 125.57031068 339.2890625 121.64697266 C338.7734375 121.21368652 338.2578125 120.78040039 337.7265625 120.33398438 C328.41833003 112.53040653 318.80704245 105.72229473 308.2890625 99.64697266 C307.62181152 99.25912598 306.95456055 98.8712793 306.26708984 98.47167969 C266.27561339 75.51628346 221.89656231 69.58656697 177.49707031 81.38916016 C158.35599442 87.02187722 139.54584634 96.09719128 123.2890625 107.64697266 C122.2578125 108.37529297 121.2265625 109.10361328 120.1640625 109.85400391 C114.00490646 114.33981781 108.31622409 119.18574682 102.74609375 124.38134766 C100.76748289 126.2058219 98.76318752 127.90517264 96.6640625 129.58447266 C91.86622412 133.64771377 88.16067219 138.72766931 84.2890625 143.64697266 C83.42667969 144.69304687 83.42667969 144.69304687 82.546875 145.76025391 C64.81283394 167.60961072 50.20827822 196.33058015 47.2890625 224.64697266 C47.5879753 226.32015526 47.916197 227.98870241 48.2890625 229.64697266 C49.21972534 229.66884644 49.21972534 229.66884644 50.16918945 229.69116211 C52.98060883 229.76563854 55.79083999 229.8622983 58.6015625 229.95947266 C60.06625977 229.99331055 60.06625977 229.99331055 61.56054688 230.02783203 C62.49833984 230.06328125 63.43613281 230.09873047 64.40234375 230.13525391 C65.26641846 230.16143799 66.13049316 230.18762207 67.02075195 230.21459961 C69.79412463 230.74324486 70.69769492 231.32348042 72.2890625 233.64697266 C72.67724609 235.95947266 72.67724609 235.95947266 72.6875 238.64697266 C72.69136719 239.61634766 72.69523437 240.58572266 72.69921875 241.58447266 C72.68761719 242.59509766 72.67601562 243.60572266 72.6640625 244.64697266 C72.67566406 245.65759766 72.68726563 246.66822266 72.69921875 247.70947266 C72.69535156 248.67884766 72.69148438 249.64822266 72.6875 250.64697266 C72.68411621 251.53384766 72.68073242 252.42072266 72.67724609 253.33447266 C72.20168484 256.16750169 71.51851335 256.88594923 69.2890625 258.64697266 C67.28847504 259.02449608 67.28847504 259.02449608 64.96228027 259.02792358 C64.07900558 259.03638306 63.1957309 259.04484253 62.28569031 259.05355835 C61.31936172 259.04748566 60.35303314 259.04141296 59.35742188 259.03515625 C58.33767776 259.04041321 57.31793365 259.04567017 56.26728821 259.05108643 C52.88897485 259.06431437 49.51113084 259.05553823 46.1328125 259.04541016 C43.79016021 259.04743008 41.44750853 259.05034084 39.1048584 259.05410767 C34.19207785 259.05853482 29.27946079 259.05208724 24.36669922 259.03808594 C18.06130714 259.02099402 11.75629812 259.03083308 5.4509201 259.04880333 C0.61258037 259.0596305 -4.22566817 259.05619969 -9.06401062 259.04841995 C-11.38929794 259.046415 -13.71459348 259.04888751 -16.03987122 259.05585861 C-19.2865704 259.06345539 -22.5326444 259.05189331 -25.77929688 259.03515625 C-26.74562546 259.04122894 -27.71195404 259.04730164 -28.70756531 259.05355835 C-29.59084 259.04509888 -30.47411469 259.0366394 -31.38415527 259.02792358 C-32.53562168 259.02622697 -32.53562168 259.02622697 -33.71035004 259.02449608 C-36.25410169 258.54447416 -37.14481103 257.67296453 -38.7109375 255.64697266 C-39.08325195 253.33447266 -39.08325195 253.33447266 -39.07421875 250.64697266 C-39.07357422 249.67759766 -39.07292969 248.70822266 -39.07226562 247.70947266 C-39.05615234 246.69884766 -39.04003906 245.68822266 -39.0234375 244.64697266 C-39.02666016 243.63634766 -39.02988281 242.62572266 -39.03320312 241.58447266 C-38.97808036 234.04768694 -38.97808036 234.04768694 -36.7109375 230.64697266 C-34.09716797 230.21459961 -34.09716797 230.21459961 -30.828125 230.13525391 C-29.66152344 230.09980469 -28.49492187 230.06435547 -27.29296875 230.02783203 C-26.06964844 230.00527344 -24.84632813 229.98271484 -23.5859375 229.95947266 C-22.35488281 229.9253125 -21.12382812 229.89115234 -19.85546875 229.85595703 C-16.8073824 229.77325701 -13.75959179 229.70417838 -10.7109375 229.64697266 C-10.71039273 228.49714559 -10.70984797 227.34731852 -10.70928669 226.1626482 C-10.69524492 198.87284741 -10.65550372 171.58318451 -10.58408188 144.29347076 C-10.57531505 140.9351496 -10.56676525 137.57682792 -10.55834961 134.21850586 C-10.55667055 133.5499197 -10.55499148 132.88133355 -10.55326154 132.1924872 C-10.52658603 121.3644254 -10.51749607 110.53641653 -10.51489607 99.70832524 C-10.51183746 88.59908063 -10.4895289 77.48997561 -10.45041293 66.38079709 C-10.42905134 60.14029396 -10.41649867 53.9000497 -10.42478371 47.65950966 C-10.43230365 41.78827732 -10.41658429 35.91757038 -10.38287735 30.0464344 C-10.37461931 27.88933613 -10.37492309 25.73218584 -10.38434029 23.57509232 C-10.39591311 20.63348824 -10.37691855 17.6936202 -10.35017395 14.75215149 C-10.36084721 13.89514328 -10.37152047 13.03813507 -10.38251716 12.15515691 C-10.30851538 7.80361051 -10.1074828 6.1484865 -7.31560802 2.61758137 C-4.54846349 0.52405013 -3.40621957 0.01712997 0 0 Z " fill="#1D1D1D" transform="translate(289.7109375,468.35302734375)"/>
<path d="M0 0 C1.55118782 0.6798999 1.55118782 0.6798999 3.13371277 1.37353516 C6.46572161 2.83944495 9.78327303 4.33536135 13.1015625 5.83203125 C15.40651543 6.85217739 17.71243086 7.8701515 20.01928711 8.88598633 C24.55368688 10.88591432 29.08307617 12.8964931 33.60791016 14.91796875 C41.14298234 18.28189979 48.71182549 21.56451811 56.2890625 24.83203125 C57.46799072 25.34338623 58.64691895 25.85474121 59.86157227 26.3815918 C67.0710611 29.50861748 74.2982156 32.59091349 81.5390625 35.64453125 C84.81123939 37.02832631 88.08314294 38.412766 91.35498047 39.79736328 C94.7587679 41.23677487 98.16463385 42.67120934 101.57080078 44.10498047 C107.12211899 46.4428577 112.66862137 48.79191472 118.21298218 51.14624023 C120.46379791 52.09994376 122.71609154 53.05016717 124.96987915 53.99682617 C128.16092301 55.33779169 131.34653197 56.69096728 134.53125 58.046875 C135.49990494 58.45066879 136.46855988 58.85446259 137.46656799 59.27049255 C146.06627269 62.95879523 146.06627269 62.95879523 148.7265625 66.64453125 C149.25622047 70.35213705 149.41583465 72.57929248 147.3515625 75.76953125 C144.06722503 78.11548658 140.58595003 79.6421239 136.87109375 81.203125 C134.56125692 82.4286276 134.56125692 82.4286276 134.10961914 84.65893555 C133.23945946 91.44107882 133.41993345 98.32620175 133.37646484 105.15429688 C133.35989332 107.06099645 133.33258748 108.96763361 133.29443359 110.87402344 C133.23947821 113.63899584 133.21776694 116.40252277 133.203125 119.16796875 C133.16912094 120.43548477 133.16912094 120.43548477 133.13442993 121.72860718 C133.1532264 127.03233281 134.05960725 130.01536347 137.55355835 134.05581665 C139.8296558 137.13855872 139.7265625 139.85329093 139.7265625 143.64453125 C138.3515625 147.20703125 138.3515625 147.20703125 136.7265625 150.64453125 C135.48382449 155.69962785 135.48382449 155.69962785 137.1640625 160.45703125 C139.33360594 164.88289986 139.33474952 168.79525344 138.7265625 173.64453125 C137.4140625 176.58203125 137.4140625 176.58203125 135.7265625 178.64453125 C135.3346875 179.20140625 134.9428125 179.75828125 134.5390625 180.33203125 C131.53289199 182.50891334 128.3715779 183.37813975 124.7265625 183.64453125 C120.25065448 182.87561396 117.41766501 181.37107492 114.2890625 178.08203125 C111.37628247 173.5380944 111.18375855 169.98210347 111.7265625 164.64453125 C112.69417858 162.62866441 113.69223346 160.62699523 114.7265625 158.64453125 C115.39444315 153.39689759 114.39351768 150.88371913 111.63671875 146.45703125 C110.01332393 143.22417632 109.91892851 140.08633664 110.7265625 136.64453125 C111.858078 134.81750488 111.858078 134.81750488 113.23120117 132.95898438 C116.16572086 128.42926003 116.38782755 124.84567184 116.21484375 119.55078125 C116.20776901 118.71865112 116.20069427 117.886521 116.19340515 117.0291748 C116.16566116 114.40000255 116.1029668 111.77304758 116.0390625 109.14453125 C116.01395351 107.35029142 115.99114492 105.55601783 115.97070312 103.76171875 C115.91590099 99.38848293 115.82977385 95.01688152 115.7265625 90.64453125 C104.65112548 94.94186529 93.73257845 99.48214823 82.9140625 104.39453125 C62.01900017 113.86316256 40.86441925 122.7347263 19.7265625 131.64453125 C18.90184448 131.99245728 18.07712646 132.3403833 17.22741699 132.69885254 C12.96945772 134.49455758 8.70927016 136.28470634 4.4440918 138.0632019 C2.65765799 138.80862437 0.87274821 139.557696 -0.91210938 140.30688477 C-1.96205078 140.74186279 -3.01199219 141.17684082 -4.09375 141.625 C-5.42817139 142.18030396 -5.42817139 142.18030396 -6.78955078 142.74682617 C-14.23807413 145.43880773 -20.72539206 145.21295036 -28.0859375 142.33203125 C-29.07726685 141.94640015 -29.07726685 141.94640015 -30.08862305 141.55297852 C-43.01041922 136.45732328 -55.84751416 131.04295238 -68.48095703 125.27026367 C-74.0059338 122.75253168 -79.56963153 120.33569453 -85.15234375 117.94921875 C-86.1541568 117.51989044 -87.15596985 117.09056213 -88.18814087 116.64822388 C-91.4035377 115.27073883 -94.61971098 113.89507784 -97.8359375 112.51953125 C-100.06488075 111.56515257 -102.29380318 110.61072526 -104.52270508 109.65625 C-115.49179116 104.96101326 -126.46673413 100.28067361 -137.4609375 95.64453125 C-139.38420864 94.82964903 -141.30738655 94.01454676 -143.23046875 93.19921875 C-146.53945989 91.79656138 -149.85160073 90.40209075 -153.16943359 89.02050781 C-156.65274155 87.5696534 -160.12986723 86.10472277 -163.60391235 84.63183594 C-164.948782 84.06461993 -166.29572871 83.50229939 -167.64486694 82.9453125 C-169.51346568 82.17316669 -171.37411072 81.38185839 -173.234375 80.58984375 C-174.30478027 80.14141113 -175.37518555 79.69297852 -176.47802734 79.23095703 C-179.66015632 77.4250641 -181.30570166 75.71575869 -183.2734375 72.64453125 C-183.3359375 69.08203125 -183.3359375 69.08203125 -182.2734375 65.64453125 C-178.71011255 62.2813338 -174.99321346 60.45245687 -170.5 58.5703125 C-169.83684784 58.2895134 -169.17369568 58.00871429 -168.490448 57.71940613 C-167.05196817 57.1112507 -165.61197589 56.50666291 -164.1706543 55.90527344 C-161.04205303 54.59964463 -157.9209578 53.27650128 -154.79937744 51.95419312 C-153.14783442 51.2546487 -151.49593172 50.55595288 -149.84368896 49.85806274 C-141.6053336 46.37459816 -133.40785168 42.79974897 -125.21414185 39.21279907 C-100.58417908 28.43255167 -75.89942723 17.76793973 -51.10180664 7.37817383 C-46.3288561 5.37752446 -41.58083692 3.34571862 -36.875 1.19140625 C-36.029375 0.81234131 -35.18375 0.43327637 -34.3125 0.04272461 C-32.7858887 -0.64384906 -31.26644054 -1.34678572 -29.7578125 -2.07202148 C-19.44737235 -6.65457442 -9.87978139 -4.53535943 0 0 Z " fill="#1D1D1D" transform="translate(529.2734375,280.35546875)"/>
<path d="M0 0 C4.66807757 0.64356021 8.61511037 2.53175553 12.8125 4.5625 C13.79379883 5.0275293 13.79379883 5.0275293 14.79492188 5.50195312 C19.03295405 7.5243815 23.23476861 9.61585963 27.43061829 11.72427368 C36.17761359 16.1182484 44.97390326 20.39872219 53.81884766 24.59204102 C55.36128863 25.32472497 56.90230078 26.06042418 58.44189453 26.79907227 C78.60160786 36.64309926 78.60160786 36.64309926 100.5 40.3125 C101.7890625 40.34988281 103.078125 40.38726562 104.40625 40.42578125 C117.08890532 39.77177172 129.03255909 33.00251738 140.3125 27.6875 C143.4738407 26.20918917 146.63725625 24.73534827 149.80078125 23.26171875 C150.57181183 22.90156174 151.34284241 22.54140472 152.13723755 22.17033386 C158.57745944 19.17118387 165.07363198 16.31270567 171.59057617 13.48510742 C175.42233827 11.81603411 179.21659974 10.08811853 183 8.3125 C183.61609131 8.02560303 184.23218262 7.73870605 184.86694336 7.44311523 C188.1523185 5.90525235 191.36985032 4.2830171 194.5625 2.5625 C198.13421945 0.93899116 200.15665424 0.86524033 204 1 C204.04631189 9.94465318 204.08186333 18.88926518 204.10362434 27.83401203 C204.11406779 31.98728478 204.12823719 36.14047559 204.15087891 40.29370117 C204.17258734 44.30074559 204.1845644 48.30771112 204.18975449 52.3148098 C204.19345384 53.84464955 204.20067765 55.37448492 204.21146011 56.90429115 C204.22594863 59.04476933 204.22797908 61.18492025 204.22705078 63.32543945 C204.231492 64.54455521 204.23593323 65.76367096 204.24050903 67.01972961 C204 70 204 70 202 73 C195.70378822 74.73019225 189.93701344 73.37019297 183.625 72.1875 C181.45359955 71.80588362 179.28172011 71.42698291 177.109375 71.05078125 C176.05556641 70.86725098 175.00175781 70.6837207 173.91601562 70.49462891 C167.30426735 69.37311166 160.67705788 68.60287115 154 68 C153.03143066 67.90976562 152.06286133 67.81953125 151.06494141 67.7265625 C106.89970039 63.77763897 61.99603063 64.93033828 18.2746582 72.46166992 C16.3733313 72.78228394 16.3733313 72.78228394 14.43359375 73.109375 C12.77928345 73.40279785 12.77928345 73.40279785 11.09155273 73.70214844 C7.79970723 74.01929694 5.2037987 73.80087786 2 73 C-0.80360422 70.19639578 -0.28188486 68.4001621 -0.3347168 64.47070312 C-0.34636871 63.80062729 -0.35802063 63.13055145 -0.37002563 62.44017029 C-0.40607322 60.2205558 -0.42789471 58.00105106 -0.44921875 55.78125 C-0.47046416 54.24189268 -0.49243097 52.70254516 -0.51509094 51.16320801 C-0.56052753 47.93518391 -0.59931019 44.70717098 -0.63305664 41.47900391 C-0.67660131 37.33585074 -0.73332556 33.19301176 -0.7946043 29.05008698 C-0.84073718 25.87091809 -0.88155128 22.69169938 -0.92057228 19.51243591 C-0.93965438 17.98455681 -0.96001643 16.45669316 -0.98166466 14.92884827 C-1.01076322 12.79568478 -1.03310772 10.66255932 -1.0534668 8.52929688 C-1.06741989 7.31399292 -1.08137299 6.09868896 -1.0957489 4.84655762 C-1 2 -1 2 0 0 Z " fill="#1D1D1D" transform="translate(410,400)"/>
<path d="M0 0 C2.05077467 0.00537684 4.10133134 0.00000374 6.15209961 -0.00634766 C14.47197628 -0.01008307 22.70159043 0.35267567 30.98608398 1.13037109 C30.98608398 1.46037109 30.98608398 1.79037109 30.98608398 2.13037109 C22.01779902 2.9722565 13.10620864 3.28862729 4.10253906 3.26074219 C2.05387955 3.25538494 0.00544003 3.26072529 -2.04321289 3.26708984 C-10.74723323 3.27099948 -19.34263295 2.87451991 -28.01391602 2.13037109 C-28.01391602 1.80037109 -28.01391602 1.47037109 -28.01391602 1.13037109 C-18.66184114 0.32779835 -9.38550871 -0.02915799 0 0 Z " fill="#282828" transform="translate(510.013916015625,492.86962890625)"/>
<path d="M0 0 C0.99 0.33 1.98 0.66 3 1 C2.67 2.98 2.34 4.96 2 7 C1.01 6.67 0.02 6.34 -1 6 C-0.67 4.02 -0.34 2.04 0 0 Z " fill="#2D2D2D" transform="translate(410,400)"/>
</svg>
