<?xml version="1.0" encoding="UTF-8"?>
<svg version="1.1" xmlns="http://www.w3.org/2000/svg" width="1024" height="1024">
<path d="M0 0 C1.15628906 0.00607269 1.15628906 0.00607269 2.3359375 0.01226807 C3.12742187 0.01035461 3.91890625 0.00844116 4.734375 0.00646973 C6.4088574 0.00510789 8.08335035 0.00880425 9.7578125 0.01715088 C12.32576131 0.02785067 14.89301053 0.01725582 17.4609375 0.00445557 C19.08593905 0.00577716 20.71094016 0.00833956 22.3359375 0.01226807 C23.10679687 0.0082196 23.87765625 0.00417114 24.671875 0 C30.10601618 0.04797174 30.10601618 0.04797174 32.3359375 2.27789307 C32.58109447 4.78164775 32.70927408 7.18338786 32.75 9.69195557 C32.76936615 10.42159515 32.7887323 11.15123474 32.8086853 11.90298462 C32.86852172 14.23616809 32.91488173 16.5694008 32.9609375 18.90289307 C32.99911364 20.48364389 33.03816515 22.06437383 33.078125 23.64508057 C33.17422628 27.52251537 33.25824162 31.40004755 33.3359375 35.27789307 C39.41195896 34.13673643 45.39412686 32.78936681 51.37402344 31.22247314 C84.69686598 22.521384 118.02269487 18.66981791 152.41964722 18.83086014 C154.56215529 18.84056851 156.70464368 18.84584364 158.84716797 18.85061646 C179.56823168 18.91137111 199.91378424 19.37633117 220.3359375 23.27789307 C221.01775085 23.4061145 221.69956421 23.53433594 222.40203857 23.66644287 C237.15252202 26.44823175 251.88685047 29.50623117 266.26538086 33.85577393 C269.50900026 34.8351447 271.89044257 35.27789307 275.3359375 35.27789307 C275.35052002 34.32422852 275.36510254 33.37056396 275.38012695 32.38800049 C275.43811542 28.84855722 275.51534708 25.30974983 275.59838867 21.77081299 C275.63163568 20.23934248 275.65966843 18.7077495 275.68237305 17.17608643 C275.71592468 14.9738142 275.7682366 12.77266395 275.82421875 10.57086182 C275.83060867 9.88638474 275.8369986 9.20190765 275.84358215 8.49668884 C275.92588515 5.83378591 276.10262783 3.71174603 277.37548828 1.3447876 C280.51184591 -0.36204712 283.73539476 -0.12846939 287.21484375 -0.08538818 C288.36665382 -0.08613594 288.36665382 -0.08613594 289.54173279 -0.0868988 C291.1631835 -0.08456027 292.78463798 -0.07484463 294.40600586 -0.05828857 C296.89274393 -0.03466103 299.37841233 -0.03773316 301.86523438 -0.04437256 C303.44011058 -0.03879687 305.01498226 -0.03168768 306.58984375 -0.02288818 C307.33569229 -0.02379959 308.08154083 -0.024711 308.84999084 -0.02565002 C314.10489459 0.04685016 314.10489459 0.04685016 316.3359375 2.27789307 C316.59765053 4.88221169 316.59765053 4.88221169 316.6144104 8.25094604 C316.63115562 10.16087593 316.63115562 10.16087593 316.64823914 12.10939026 C316.65060433 13.52835054 316.65277994 14.94731114 316.65478516 16.36627197 C316.66407908 17.85423836 316.67424694 19.34219951 316.68522644 20.83015442 C316.71260106 24.87741643 316.72769784 28.92464349 316.74065447 32.9719739 C316.75625249 37.19877426 316.78305324 41.42550291 316.8086853 45.6522522 C316.85553223 53.6597089 316.89224764 61.66717901 316.92535818 69.674703 C316.96353787 78.78949322 317.01295884 87.90421151 317.06334233 97.01894116 C317.16675011 115.77187254 317.25598165 134.52484778 317.3359375 153.27789307 C318.52832031 153.24308838 319.72070312 153.20828369 320.94921875 153.17242432 C322.51561092 153.14428553 324.08201831 153.11698547 325.6484375 153.09039307 C326.43412109 153.06525635 327.21980469 153.04011963 328.02929688 153.01422119 C329.1652832 152.99971924 329.1652832 152.99971924 330.32421875 152.98492432 C331.36896362 152.96135864 331.36896362 152.96135864 332.43481445 152.93731689 C334.96276865 153.39018656 335.81840749 154.23257719 337.3359375 156.27789307 C337.60701031 159.05566069 337.70964709 161.5712714 337.6484375 164.34039307 C337.65327148 165.43964111 337.65327148 165.43964111 337.65820312 166.56109619 C337.60315689 172.01067368 337.60315689 172.01067368 335.3359375 174.27789307 C332.29956055 174.53186035 332.29956055 174.53186035 328.34765625 174.53668213 C327.62881256 174.54018677 326.90996887 174.54369141 326.16934204 174.54730225 C323.78727634 174.55612271 321.40550635 174.55026943 319.0234375 174.54351807 C317.37198835 174.54486463 315.72053959 174.54680509 314.0690918 174.54931641 C310.60559317 174.55226809 307.1421976 174.54796863 303.67871094 174.53863525 C299.23298439 174.52724065 294.7874993 174.53379989 290.34178162 174.54578018 C286.93093029 174.55299761 283.52013648 174.5507114 280.10928345 174.5455246 C278.46977714 174.54418777 276.83026565 174.54583696 275.19076538 174.5504837 C272.90177524 174.55554707 270.61317942 174.54784169 268.32421875 174.53668213 C267.02009033 174.53509094 265.71596191 174.53349976 264.37231445 174.53186035 C261.3359375 174.27789307 261.3359375 174.27789307 259.3359375 172.27789307 C259.11041512 169.58626881 259.0116046 167.03119562 259.0234375 164.34039307 C259.00732422 163.61142822 258.99121094 162.88246338 258.97460938 162.13140869 C258.97195294 159.23324243 259.01750358 156.87059853 260.40625 154.28570557 C263.43231406 152.70529154 266.1476043 152.99748023 269.5234375 153.09039307 C271.43189453 153.13099854 271.43189453 153.13099854 273.37890625 153.17242432 C274.35472656 153.207229 275.33054687 153.24203369 276.3359375 153.27789307 C273.63282852 125.63998287 256.99371313 100.16794004 236.3359375 82.27789307 C207.99602333 59.35698057 173.63710133 49.95576805 137.48730469 53.56207275 C106.10948069 57.91135865 74.65647664 74.44721299 55.0859375 99.59039307 C43.42091311 115.11221519 33.91085045 133.74897245 32.3359375 153.27789307 C33.22796875 153.24308838 34.12 153.20828369 35.0390625 153.17242432 C36.20953125 153.145354 37.38 153.11828369 38.5859375 153.09039307 C39.74609375 153.05558838 40.90625 153.02078369 42.1015625 152.98492432 C45.3359375 153.27789307 45.3359375 153.27789307 47.734375 154.28570557 C50.21060501 157.36589411 49.83754328 160.57220514 49.7109375 164.34039307 C49.70964844 165.0732251 49.70835937 165.80605713 49.70703125 166.56109619 C49.6171875 171.99664307 49.6171875 171.99664307 47.3359375 174.27789307 C44.29956055 174.53186035 44.29956055 174.53186035 40.34765625 174.53668213 C39.62881256 174.54018677 38.90996887 174.54369141 38.16934204 174.54730225 C35.78727634 174.55612271 33.40550635 174.55026943 31.0234375 174.54351807 C29.37198835 174.54486463 27.72053959 174.54680509 26.0690918 174.54931641 C22.60559317 174.55226809 19.1421976 174.54796863 15.67871094 174.53863525 C11.23298439 174.52724065 6.7874993 174.53379989 2.34178162 174.54578018 C-1.06906971 174.55299761 -4.47986352 174.5507114 -7.89071655 174.5455246 C-9.53022286 174.54418777 -11.16973435 174.54583696 -12.80923462 174.5504837 C-15.09822476 174.55554707 -17.38682058 174.54784169 -19.67578125 174.53668213 C-20.97990967 174.53509094 -22.28403809 174.53349976 -23.62768555 174.53186035 C-26.6640625 174.27789307 -26.6640625 174.27789307 -28.6640625 172.27789307 C-28.88958488 169.58626881 -28.9883954 167.03119562 -28.9765625 164.34039307 C-28.99267578 163.61142822 -29.00878906 162.88246338 -29.02539062 162.13140869 C-29.03030706 156.76757821 -29.03030706 156.76757821 -27.39208984 154.57720947 C-25.32952317 153.0263505 -24.21007607 152.86232967 -21.65234375 152.76617432 C-20.89501953 152.7307251 -20.13769531 152.69527588 -19.35742188 152.65875244 C-18.57173828 152.63619385 -17.78605469 152.61363525 -16.9765625 152.59039307 C-16.17927734 152.55623291 -15.38199219 152.52207275 -14.56054688 152.48687744 C-12.59554346 152.40451203 -10.62982554 152.33952239 -8.6640625 152.27789307 C-8.66075235 151.50667681 -8.65744221 150.73546055 -8.65403175 149.9408741 C-8.57289841 131.19678471 -8.48083799 112.45277836 -8.37653542 93.70880318 C-8.32636096 84.64444805 -8.27991871 75.5801022 -8.2421875 66.51568604 C-8.20930104 58.61741212 -8.16948857 50.7192091 -8.12127244 42.82101333 C-8.09597402 38.63692573 -8.07420275 34.45288535 -8.06071854 30.26874161 C-8.04792834 26.33385255 -8.02590729 22.3991252 -7.99667931 18.46432495 C-7.98757961 17.01710631 -7.98190775 15.5698616 -7.97984886 14.12261581 C-7.9765433 12.15270144 -7.95992077 10.1828226 -7.9425354 8.21298218 C-7.93700464 7.10867418 -7.93147388 6.00436619 -7.92577553 4.86659431 C-7.40518296 -0.28278111 -4.49662207 0.03969547 0 0 Z " fill="#272727" transform="translate(357.6640625,394.72210693359375)"/>
<path d="M0 0 C1.72995876 0.77883252 3.46093646 1.55540527 5.19287109 2.32983398 C8.76045764 3.9266768 12.32389465 5.53228437 15.88476562 7.14404297 C23.04761684 10.37635454 30.26326932 13.48405292 37.48306274 16.58651733 C39.74665046 17.56105793 42.00782736 18.54098701 44.26831055 19.52270508 C51.47808921 22.65154471 58.69819439 25.7503185 65.95147705 28.7771759 C69.40954263 30.22203793 72.86216129 31.67965844 76.31439209 33.13839722 C77.96701902 33.83243269 79.62231694 34.52014523 81.28033447 35.20120239 C83.57271936 36.14323798 85.85519065 37.10624531 88.13671875 38.07421875 C88.81815445 38.34755035 89.49959015 38.62088196 90.20167542 38.90249634 C93.38493336 40.27744713 94.91291382 41.09936073 96.56176758 44.21411133 C96.74763428 44.96845459 96.93350098 45.72279785 97.125 46.5 C93.39101108 50.79974481 90.59024644 52.12242316 85.125 53.5 C85.19392848 58.2693941 85.28191856 63.03791576 85.38745117 67.80664062 C85.42066835 69.42828686 85.44871035 71.05004781 85.47143555 72.671875 C85.50504155 75.00570477 85.5573576 77.33848635 85.61328125 79.671875 C85.62286613 80.75647003 85.62286613 80.75647003 85.63264465 81.86297607 C85.75642841 86.11791291 86.37106562 88.29091841 89.125 91.5 C89.51003486 95.88939738 89.59842266 97.78986601 87.125 101.5 C86.84375454 103.5395984 86.84375454 103.5395984 86.9375 105.8125 C86.95296875 107.12734375 86.95296875 107.12734375 86.96875 108.46875 C87.08283971 110.68209044 87.28229972 112.89149749 87.53125 115.09375 C88.58570966 124.74611147 88.58570966 124.74611147 86.0625 128.875 C82.59867714 130.79115733 81.01051991 131.30948331 77.125 130.5 C74.25 128.5 74.25 128.5 72.125 125.5 C71.7277761 121.39535307 72.03436008 118.12314945 72.625 114.0625 C73.60471102 107.08205897 73.90254547 102.57692097 70.125 96.5 C70.35923128 92.59614534 70.93833314 90.78000029 73.125 87.5 C73.785 87.5 74.445 87.5 75.125 87.5 C74.795 77.93 74.465 68.36 74.125 58.5 C71.64097656 59.59054687 69.15695312 60.68109375 66.59765625 61.8046875 C65.73406494 62.18382294 64.87047363 62.56295837 63.98071289 62.95358276 C59.53790559 64.9040737 55.09511334 66.85459894 50.65234375 68.80517578 C41.91228423 72.64241974 33.1721445 76.47948034 24.4315033 80.31539917 C20.72039339 81.94407008 17.00934913 83.57289056 13.29830933 85.20172119 C11.52891259 85.97828516 9.75948354 86.75477551 7.99002075 87.53118896 C5.50368065 88.62216572 3.01745426 89.71340122 0.53125 90.8046875 C-0.18905899 91.12066895 -0.90936798 91.43665039 -1.65150452 91.76220703 C-2.34078537 92.06481445 -3.03006622 92.36742187 -3.74023438 92.67919922 C-4.41503342 92.97300476 -5.08983246 93.2668103 -5.78507996 93.56951904 C-7.25821978 94.22539512 -8.72129838 94.90410272 -10.1764679 95.59893799 C-17.76547718 99.17057551 -24.60712553 100.01483023 -32.82275391 97.65234375 C-36.01359321 96.39118469 -39.09062327 94.97709008 -42.1875 93.5 C-44.09337391 92.62805721 -46.00355276 91.76598553 -47.91384888 90.90377808 C-49.35964693 90.25052637 -50.80415854 89.59442172 -52.24752808 88.93582153 C-62.89647654 84.08939265 -73.67750786 79.54338787 -84.43734741 74.95019531 C-88.02526819 73.41826695 -91.61107731 71.88143932 -95.1965332 70.34375 C-97.51121555 69.35152769 -99.82591268 68.35933989 -102.140625 67.3671875 C-103.83230049 66.64169708 -103.83230049 66.64169708 -105.55815125 65.90155029 C-111.4708426 63.36996822 -117.39157636 60.85955614 -123.32617188 58.37988281 C-124.52723572 57.87667511 -125.72829956 57.37346741 -126.96575928 56.85501099 C-129.2643139 55.89328942 -131.56458139 54.93564873 -133.86676025 53.9826355 C-134.8900946 53.55411285 -135.91342896 53.12559021 -136.96777344 52.68408203 C-137.86993591 52.30929718 -138.77209839 51.93451233 -139.70159912 51.54837036 C-141.875 50.5 -141.875 50.5 -143.875 48.5 C-144 45.375 -144 45.375 -143.875 42.5 C-136.89527755 38.89446066 -129.8153117 35.7004811 -122.5625 32.6875 C-120.24292046 31.71489788 -117.92394487 30.74085452 -115.60546875 29.765625 C-114.99069672 29.50708237 -114.37592468 29.24853973 -113.74252319 28.98216248 C-106.70083501 26.01492757 -99.69058563 22.97556335 -92.68002319 19.93569946 C-90.36239879 18.932043 -88.04334829 17.93175308 -85.72387695 16.93237305 C-77.94218696 13.57683045 -70.17325074 10.19672683 -62.43121338 6.75050354 C-58.63431305 5.06379569 -54.83048739 3.39307446 -51.02563477 1.72439575 C-49.19378482 0.91632499 -47.36507532 0.10109236 -45.53979492 -0.72171021 C-27.14559357 -9.00712821 -18.13979473 -8.36277764 0 0 Z " fill="#272727" transform="translate(535.875,264.5)"/>
<path d="M0 0 C5.61 0 11.22 0 17 0 C17.99257813 1.80339844 18.98515625 3.60679687 20.0078125 5.46484375 C26.95316836 18.07727662 33.91436385 30.6806764 40.9375 43.25 C41.53385254 44.31984131 42.13020508 45.38968262 42.74462891 46.49194336 C43.2916748 47.4691333 43.8387207 48.44632324 44.40234375 49.453125 C44.88179443 50.31067383 45.36124512 51.16822266 45.85522461 52.05175781 C46.85310299 53.93691081 46.85310299 53.93691081 48 55 C48.3309668 54.35788574 48.66193359 53.71577148 49.00292969 53.05419922 C55.07101194 41.29598478 61.17561093 29.5603217 67.5 17.9375 C67.97920898 17.05368652 68.45841797 16.16987305 68.95214844 15.25927734 C69.85921806 13.60077214 70.78709465 11.95342725 71.73828125 10.31982422 C73.05434781 8.04223441 73.05434781 8.04223441 73.85546875 5.60595703 C74.78125 3.37890625 74.78125 3.37890625 78 0 C83.61 0 89.22 0 95 0 C95 30.69 95 61.38 95 93 C89.72 93 84.44 93 79 93 C78.67 72.21 78.34 51.42 78 30 C73.71 38.25 69.42 46.5 65 55 C54.32713755 74.83643123 54.32713755 74.83643123 52 76 C49.9765625 76.23828125 49.9765625 76.23828125 47.625 76.3125 C46.85414063 76.34988281 46.08328125 76.38726563 45.2890625 76.42578125 C42.11818915 75.83597716 41.12188522 74.39775825 39 72 C37.49536133 69.50488281 37.49536133 69.50488281 36.08203125 66.703125 C35.54900391 65.66027344 35.01597656 64.61742187 34.46679688 63.54296875 C33.92087891 62.45628906 33.37496094 61.36960937 32.8125 60.25 C27.79745317 50.3426737 22.49762599 40.64626511 17 31 C16.9845388 32.14298805 16.9845388 32.14298805 16.96876526 33.30906677 C16.8709559 40.4755974 16.7684656 47.64203827 16.66066074 54.80842495 C16.60539835 58.4931019 16.55197321 62.17778673 16.50268555 65.86254883 C16.45509068 69.41577841 16.40274993 72.96890875 16.34705925 76.52202034 C16.3266135 77.88042811 16.30790415 79.23886312 16.29092598 80.59731865 C16.26693123 82.49389705 16.23629668 84.39038799 16.20532227 86.28686523 C16.18977798 87.36830307 16.1742337 88.44974091 16.15821838 89.56394958 C16 92 16 92 15 93 C10.05 93 5.1 93 0 93 C0 62.31 0 31.62 0 0 Z " fill="#252525" transform="translate(510,627)"/>
<path d="M0 0 C8.11833877 5.30177226 12.70373456 12.82945333 15.63671875 21.98828125 C17.64044702 33.08419588 15.7143238 45.05766903 9.3125 54.4375 C3.64356417 61.2087289 -3.73521111 65.38029909 -12.52734375 66.25 C-19.3154971 66.55465765 -25.07658718 65.42100847 -31 62 C-32.32 60.68 -33.64 59.36 -35 58 C-35.33 69.22 -35.66 80.44 -36 92 C-40.95 92 -45.9 92 -51 92 C-51.02312178 79.89158056 -51.04091424 67.78316633 -51.05181217 55.67472935 C-51.05704136 50.05292038 -51.06413966 44.43112647 -51.07543945 38.80932617 C-51.08626706 33.38881723 -51.09227656 27.9683228 -51.09487724 22.54780388 C-51.09673172 20.47485055 -51.10035277 18.40189806 -51.10573006 16.32895088 C-51.1129388 13.43616107 -51.11399101 10.54343204 -51.11352539 7.65063477 C-51.11712067 6.78461136 -51.12071594 5.91858795 -51.12442017 5.02632141 C-51.11405216 -0.88594784 -51.11405216 -0.88594784 -50 -2 C-47.64686445 -2.07271741 -45.29166332 -2.08370868 -42.9375 -2.0625 C-41.64714844 -2.05347656 -40.35679687 -2.04445313 -39.02734375 -2.03515625 C-38.02832031 -2.02355469 -37.02929688 -2.01195312 -36 -2 C-35.67 0.31 -35.34 2.62 -35 5 C-34.5875 4.60167969 -34.175 4.20335937 -33.75 3.79296875 C-23.50149959 -5.60911533 -12.34170349 -6.26880177 0 0 Z " fill="#252525" transform="translate(350,656)"/>
<path d="M0 0 C5.42428184 1.80809395 10.27027651 3.44351511 15.37890625 5.78515625 C17.11539429 6.5745459 17.11539429 6.5745459 18.88696289 7.37988281 C19.48687042 7.65465454 20.08677795 7.92942627 20.7048645 8.21252441 C30.9225076 12.88768657 41.19008415 17.42715662 51.5625 21.75 C52.56031494 22.16773682 53.55812988 22.58547363 54.58618164 23.01586914 C61.49383696 25.87518796 66.9670674 27.21802342 74.5 27.3125 C75.23992187 27.34150391 75.97984375 27.37050781 76.7421875 27.40039062 C91.40926065 27.56308 105.66790624 18.82992118 118.6875 12.9375 C121.72278995 11.56568716 124.75884306 10.19569387 127.7973175 8.83094788 C129.67584312 7.9870688 131.55258841 7.13921065 133.4271698 6.28660583 C134.28869156 5.89932816 135.15021332 5.51205048 136.0378418 5.11303711 C137.1527021 4.60818031 137.1527021 4.60818031 138.29008484 4.09312439 C142.12474806 2.54629962 146.07729965 1.30756678 150 0 C150 16.5 150 33 150 50 C145.32683915 51.16829021 142.55057947 50.19456025 138.125 48.8125 C97.01687672 36.75608373 48.81887265 35.49552265 8.1796875 50.14453125 C5 51 5 51 0 50 C0 33.5 0 17 0 0 Z " fill="#262626" transform="translate(437,346)"/>
<path d="M0 0 C6.76589158 5.01390602 10.66010932 11.80064047 13.29296875 19.69921875 C14.68293743 32.3129813 13.63441544 42.59872275 5.6171875 52.83984375 C-0.19418609 59.198956 -8.39509734 63.08828204 -16.93359375 64.0703125 C-27.70585688 64.280805 -37.24442319 61.95901639 -45.24609375 54.3671875 C-53.80673924 44.59340241 -54.49546566 34.36241659 -53.89355469 21.90136719 C-53.1445123 13.05796104 -48.16740795 6.48497205 -41.70703125 0.69921875 C-28.6986844 -8.60867341 -13.27937525 -8.5029178 0 0 Z " fill="#262626" transform="translate(272.70703125,658.30078125)"/>
<path d="M0 0 C5.61 0 11.22 0 17 0 C17.33 13.86 17.66 27.72 18 42 C24.85096406 34.45176213 24.85096406 34.45176213 31.375 26.6875 C33.82062254 23.66366548 36.27947427 20.65619228 38.80078125 17.6953125 C39.27596191 17.13650391 39.75114258 16.57769531 40.24072266 16.00195312 C41.2012132 14.88035431 42.1683144 13.76438127 43.14208984 12.65429688 C45.76191598 9.63359807 47.68092381 6.72563444 49.5 3.1875 C51.3510445 1.13441627 52.44293997 0.1119233 55.18115234 -0.43823242 C55.97473145 -0.45217041 56.76831055 -0.4661084 57.5859375 -0.48046875 C58.87661133 -0.50693481 58.87661133 -0.50693481 60.19335938 -0.53393555 C64.14376246 -0.4839441 68.05905175 -0.28093888 72 0 C67.85717673 8.56064237 60.68914402 15.57236822 54.51000977 22.73779297 C50.56860422 27.31414377 46.72252561 31.95665939 42.9140625 36.64453125 C40.63380496 39.4506441 38.32208587 42.22847815 36 45 C37.68341412 49.05999875 40.51153934 52.11264028 43.375 55.375 C44.46230696 56.62884782 45.54954457 57.88275579 46.63671875 59.13671875 C47.19407715 59.77657715 47.75143555 60.41643555 48.32568359 61.07568359 C50.95892884 64.10211098 53.57478659 67.14334482 56.1875 70.1875 C56.68290283 70.76395264 57.17830566 71.34040527 57.6887207 71.93432617 C61.5926226 76.49070878 65.3972761 81.11914927 69.16015625 85.79296875 C70.91276674 87.97822558 70.91276674 87.97822558 72.74609375 89.67578125 C74 91 74 91 74 93 C57.55267991 95.21374697 57.55267991 95.21374697 51.921875 91.70507812 C48.12342877 88.2596926 45.1977524 84.15929339 42.32714844 79.93164062 C40.51882186 77.29965389 38.49227184 74.87982667 36.4375 72.4375 C35.74398437 71.58027344 35.05046875 70.72304688 34.3359375 69.83984375 C30.95381979 65.72813878 27.47369802 61.70209034 23.98413086 57.68139648 C21.82927079 55.18818465 19.83061292 52.74591938 18 50 C17.67 64.19 17.34 78.38 17 93 C11.39 93 5.78 93 0 93 C0 62.31 0 31.62 0 0 Z " fill="#242525" transform="translate(144,627)"/>
<path d="M0 0 C0.75990234 -0.01160156 1.51980469 -0.02320313 2.30273438 -0.03515625 C10.83507021 0.00856195 17.07403391 2.61490904 23.3046875 8.41796875 C26.02486132 11.44642894 27.62249497 14.59309206 29.0625 18.375 C29.475 19.426875 29.8875 20.47875 30.3125 21.5625 C31.40942276 27.13852403 31.41562637 32.70855361 31.0625 38.375 C30.0625 39.375 30.0625 39.375 28.15794373 39.49525452 C27.32521439 39.49303391 26.49248505 39.49081329 25.63452148 39.48852539 C24.69362167 39.48844986 23.75272186 39.48837433 22.78330994 39.48829651 C21.76040359 39.48313522 20.73749725 39.47797394 19.68359375 39.47265625 C18.64179459 39.4712413 17.59999542 39.46982635 16.52662659 39.46836853 C13.18438906 39.4627508 9.84221743 39.4501953 6.5 39.4375 C4.24023534 39.43248728 1.98046963 39.42792398 -0.27929688 39.42382812 C-5.83205391 39.41277561 -11.38477225 39.39602024 -16.9375 39.375 C-16.32941836 40.99253853 -15.71167106 42.60644575 -15.08984375 44.21875 C-14.74687256 45.11787109 -14.40390137 46.01699219 -14.05053711 46.94335938 C-12.20036295 50.98541567 -9.54744493 52.62460194 -5.6328125 54.44921875 C1.75509769 56.98680529 9.63647683 55.65253131 16.80859375 53.03125 C19.31917669 52.30026571 21.46111856 52.26488862 24.0625 52.375 C27.04016749 57.61569479 27.04016749 57.61569479 27.125 60.5 C24.54232202 65.05766702 19.81898798 66.6307051 15.0625 68.125 C4.35185761 70.77715907 -7.37560008 70.72512522 -17.1171875 65.12109375 C-24.24219167 60.18736445 -29.29067255 53.78916775 -31.46484375 45.33984375 C-33.24412293 34.17891073 -33.07173916 22.56536812 -26.2890625 13.06640625 C-18.86737691 4.23492449 -11.53682315 -0.17524288 0 0 Z " fill="#252525" transform="translate(651.9375,652.625)"/>
<path d="M0 0 C6.64406604 3.95017572 11.43051691 9.66228375 13.37890625 17.12890625 C13.64873903 20.8989686 13.6116871 24.65557729 13.57421875 28.43359375 C13.57138885 29.51271027 13.56855896 30.59182678 13.56564331 31.7036438 C13.55448285 35.13717924 13.52938555 38.57045016 13.50390625 42.00390625 C13.49387112 44.33723581 13.4847462 46.67056947 13.4765625 49.00390625 C13.454557 54.71234091 13.42005533 60.42057879 13.37890625 66.12890625 C8.42890625 66.12890625 3.47890625 66.12890625 -1.62109375 66.12890625 C-1.63567627 64.92878906 -1.65025879 63.72867188 -1.6652832 62.4921875 C-1.72354393 58.0115884 -1.80077408 53.53147732 -1.88354492 49.05126953 C-1.91666412 47.11743123 -1.94473599 45.18349929 -1.9675293 43.24951172 C-2.0013156 40.45890646 -2.05364205 37.66914934 -2.109375 34.87890625 C-2.11576492 34.02337158 -2.12215485 33.16783691 -2.1287384 32.28637695 C-2.27459557 26.24222811 -2.95340768 20.25847914 -7.0370636 15.46777344 C-10.16780951 12.82157824 -13.60018233 12.83853756 -17.5625 12.92578125 C-20.92419336 13.25748534 -22.88837538 14.1414747 -25.62109375 16.12890625 C-29.56432463 21.75845871 -30.21034132 27.1311021 -30.1953125 33.84375 C-30.21655937 35.18826988 -30.21655937 35.18826988 -30.23823547 36.55995178 C-30.2798567 39.39556195 -30.29533413 42.23053464 -30.30859375 45.06640625 C-30.33763874 47.92697809 -30.37209216 50.78738943 -30.41108704 53.64784241 C-30.43360707 55.42172448 -30.44940657 57.19570677 -30.45793152 58.9697113 C-30.51146342 65.01927592 -30.51146342 65.01927592 -31.62109375 66.12890625 C-33.9526943 66.22799927 -36.28739317 66.25861129 -38.62109375 66.25390625 C-39.89984375 66.25648438 -41.17859375 66.2590625 -42.49609375 66.26171875 C-45.62109375 66.12890625 -45.62109375 66.12890625 -46.62109375 65.12890625 C-46.72039908 63.14003131 -46.74908837 61.14760208 -46.75048828 59.15625 C-46.75364044 57.8782251 -46.7567926 56.6002002 -46.76004028 55.28344727 C-46.7582505 53.87776658 -46.75619955 52.4720862 -46.75390625 51.06640625 C-46.75457933 49.63533512 -46.75554939 48.2042641 -46.75680542 46.77319336 C-46.75828219 43.77033401 -46.75612851 40.76750435 -46.75146484 37.76464844 C-46.74576756 33.90738054 -46.74904667 30.05018221 -46.75503731 26.19291687 C-46.75864349 23.23677034 -46.75750407 20.28064042 -46.75490952 17.32449341 C-46.7542404 15.90186556 -46.75506812 14.47923622 -46.75738907 13.05661011 C-46.75991649 11.07159451 -46.75538417 9.08657366 -46.75048828 7.1015625 C-46.74969269 5.96984619 -46.74889709 4.83812988 -46.74807739 3.67211914 C-46.62109375 1.12890625 -46.62109375 1.12890625 -45.62109375 0.12890625 C-43.2679582 0.05618884 -40.91275707 0.04519757 -38.55859375 0.06640625 C-37.26824219 0.07542969 -35.97789062 0.08445312 -34.6484375 0.09375 C-33.64941406 0.10535156 -32.65039062 0.11695313 -31.62109375 0.12890625 C-30.96109375 2.10890625 -30.30109375 4.08890625 -29.62109375 6.12890625 C-29.07839844 5.70738281 -28.53570313 5.28585937 -27.9765625 4.8515625 C-27.26113281 4.30371094 -26.54570313 3.75585938 -25.80859375 3.19140625 C-25.10089844 2.64613281 -24.39320313 2.10085938 -23.6640625 1.5390625 C-17.76564913 -2.53230887 -6.64142115 -2.20720852 0 0 Z " fill="#262626" transform="translate(877.62109375,653.87109375)"/>
<path d="M0 0 C2.47923801 -0.02685095 4.9581884 -0.04676547 7.4375 -0.0625 C8.14455078 -0.07087891 8.85160156 -0.07925781 9.58007812 -0.08789062 C11.38693559 -0.09653588 13.19387603 -0.05220011 15 0 C16.53058988 1.53058988 16.13951221 2.92389685 16.15771484 5.05737305 C16.16797699 5.91884445 16.17823914 6.78031586 16.18881226 7.66789246 C16.19611359 8.60635513 16.20341492 9.54481781 16.2109375 10.51171875 C16.23901847 12.48633624 16.267683 14.4609455 16.296875 16.43554688 C16.33806879 19.55818343 16.37494219 22.68066842 16.40136719 25.8034668 C16.42904194 28.81071056 16.47492963 31.81724838 16.5234375 34.82421875 C16.52669037 35.75256027 16.52994324 36.68090179 16.53329468 37.63737488 C16.63136459 42.83040017 17.10807627 46.50349325 20 51 C22.95835019 53.41050756 26.23424469 53.36434543 29.9765625 53.24609375 C33.20855968 52.85301301 35.32032958 51.82704802 38 50 C41.25554383 45.77659178 43.0941097 42.33766807 43.18945312 37.00341797 C43.21452942 35.80735428 43.21452942 35.80735428 43.2401123 34.58712769 C43.25368774 33.73079742 43.26726318 32.87446716 43.28125 31.9921875 C43.29965942 31.11096222 43.31806885 30.22973694 43.33703613 29.32180786 C43.41577833 25.54815889 43.48365404 21.77433331 43.55224609 18.00048828 C43.6038297 15.24762757 43.66111817 12.49492713 43.71875 9.7421875 C43.73232544 8.88180878 43.74590088 8.02143005 43.7598877 7.13497925 C43.88715199 1.11284801 43.88715199 1.11284801 45 0 C49.62 0 54.24 0 59 0 C59 21.78 59 43.56 59 66 C54.38 66 49.76 66 45 66 C44.34 64.02 43.68 62.04 43 60 C42.154375 60.763125 41.30875 61.52625 40.4375 62.3125 C34.64344439 67.05554087 29.19013311 68.57545732 21.78125 68.3515625 C14.84444853 67.47471962 9.41599369 64.42536368 5 59 C1.51038135 53.74782821 -0.13005323 49.42022826 -0.11352539 43.13964844 C-0.11344986 42.17895447 -0.11337433 41.2182605 -0.11329651 40.22845459 C-0.10813522 39.19915833 -0.10297394 38.16986206 -0.09765625 37.109375 C-0.0962413 36.04962463 -0.09482635 34.98987427 -0.09336853 33.89801025 C-0.08777382 30.51531138 -0.07522225 27.13267885 -0.0625 23.75 C-0.05748432 21.45573012 -0.05292153 19.16145921 -0.04882812 16.8671875 C-0.03780611 11.24476906 -0.02107321 5.62238927 0 0 Z " fill="#262626" transform="translate(757,654)"/>
<path d="M0 0 C2.31243792 -0.02685412 4.6249627 -0.04632841 6.9375 -0.0625 C8.22527344 -0.07410156 9.51304687 -0.08570313 10.83984375 -0.09765625 C14 0 14 0 15 1 C15.12343045 4.10353058 15.18620561 7.18819522 15.2109375 10.29296875 C15.23901898 12.22201351 15.26768353 14.15104985 15.296875 16.08007812 C15.33806421 19.13028617 15.37493796 22.18033928 15.40136719 25.23071289 C15.42904806 28.16846532 15.47493605 31.105496 15.5234375 34.04296875 C15.52669037 34.94943649 15.52994324 35.85590424 15.53329468 36.7898407 C15.63260277 41.92841572 16.13676073 45.55462745 19 50 C22.44250863 52.95072168 25.48888211 53.49028333 30.01171875 53.27734375 C33.89431138 52.73576403 36.8155959 51.56659201 39.22265625 48.3828125 C41.87718042 43.94909113 43.08939283 40.06671553 43.20532227 34.96582031 C43.22526749 34.18531311 43.24521271 33.40480591 43.26576233 32.60064697 C43.28247482 31.76821472 43.29918732 30.93578247 43.31640625 30.078125 C43.33718735 29.21813904 43.35796844 28.35815308 43.37937927 27.47210693 C43.44463739 24.73148402 43.50364917 21.99076725 43.5625 19.25 C43.60570781 17.3893133 43.64932282 15.52863602 43.69335938 13.66796875 C43.80029442 9.11207477 43.90162851 4.5560866 44 0 C46.31243792 -0.02685412 48.6249627 -0.04632841 50.9375 -0.0625 C52.22527344 -0.07410156 53.51304687 -0.08570313 54.83984375 -0.09765625 C58 0 58 0 59 1 C59.09409479 3.02494231 59.11743122 5.0531987 59.11352539 7.08032227 C59.11344986 8.38159561 59.11337433 9.68286896 59.11329651 11.02357483 C59.10818909 12.45451902 59.10297308 13.88546282 59.09765625 15.31640625 C59.09579203 16.7722926 59.09436815 18.22817957 59.09336853 19.68406677 C59.08954365 23.52279379 59.07971364 27.36148319 59.06866455 31.20019531 C59.05844978 35.11457816 59.05387077 39.02896706 59.04882812 42.94335938 C59.03809133 50.62892541 59.02049479 58.31445265 59 66 C54.05 66 49.1 66 44 66 C43.505 63.03 43.505 63.03 43 60 C42.50371094 60.40992188 42.00742187 60.81984375 41.49609375 61.2421875 C35.41282083 66.06725027 30.08911689 68.50861216 22.10546875 68.24609375 C14.81522427 67.39398725 8.76251698 64.63928291 4 59 C0.06314347 51.90880147 -0.55196734 45.27759652 -0.390625 37.3046875 C-0.38496521 36.23123077 -0.37930542 35.15777405 -0.37347412 34.05178833 C-0.35127411 30.65905125 -0.30110797 27.2674121 -0.25 23.875 C-0.22991387 21.5599112 -0.21166682 19.24480567 -0.1953125 16.9296875 C-0.15146331 11.28609048 -0.08471745 5.64312371 0 0 Z " fill="#242424" transform="translate(430,654)"/>
<path d="M0 0 C7.24487049 -0.02464113 14.48971682 -0.0428318 21.73461914 -0.05493164 C24.20142033 -0.05997356 26.66821852 -0.06680691 29.13500977 -0.07543945 C32.67204529 -0.08751125 36.20904145 -0.09322956 39.74609375 -0.09765625 C40.85649521 -0.10281754 41.96689667 -0.10797882 43.11094666 -0.11329651 C44.64242088 -0.11340981 44.64242088 -0.11340981 46.20483398 -0.11352539 C47.10862289 -0.115746 48.0124118 -0.11796661 48.94358826 -0.12025452 C51 0 51 0 52 1 C52.91244553 4.85581822 52.86664874 8.13521509 52 12 C49.24772427 16.16743452 45.96882968 19.66825131 42.55224609 23.29541016 C40.03060168 26.06453901 37.77645891 29.02889544 35.5 32 C30.19572929 38.83830192 24.6284655 45.42694464 19 52 C19.99443115 52.02505615 20.9888623 52.0501123 22.01342773 52.07592773 C25.69048747 52.16984882 29.3673515 52.27010619 33.04418945 52.37231445 C34.637893 52.41572146 36.2316448 52.45739219 37.82543945 52.49731445 C40.11163908 52.55487807 42.39759449 52.61861149 44.68359375 52.68359375 C45.40026718 52.70030624 46.11694061 52.71701874 46.85533142 52.73423767 C51.88612829 52.88612829 51.88612829 52.88612829 53 54 C53 57.96 53 61.92 53 66 C35.18 66 17.36 66 -1 66 C-1 52.66271887 -1 52.66271887 2.70751953 48.67919922 C3.23716309 48.16631348 3.76680664 47.65342773 4.3125 47.125 C5.42345424 45.94541539 6.53145708 44.76304517 7.63671875 43.578125 C8.20052246 42.98837891 8.76432617 42.39863281 9.34521484 41.79101562 C11.95849298 38.96259892 14.2869791 35.93165559 16.625 32.875 C21.59412671 26.4263922 26.77026236 20.27568517 32 14 C21.44 13.67 10.88 13.34 0 13 C0 8.71 0 4.42 0 0 Z " fill="#252525" transform="translate(693,654)"/>
<path d="M0 0 C0.02685938 2.14576637 0.04633088 4.29162645 0.0625 6.4375 C0.07410156 7.63246094 0.08570313 8.82742188 0.09765625 10.05859375 C0 13 0 13 -1 14 C-4.71852784 14.46309656 -8.43887255 14.83741524 -12.16796875 15.20703125 C-16.45009795 16.09313954 -18.7149152 17.12376801 -22 20 C-24.92845864 25.49610183 -25.46349968 30.05006002 -25.51171875 36.21484375 C-25.52966995 37.07058487 -25.54762115 37.92632599 -25.56611633 38.80799866 C-25.61992031 41.51778361 -25.65401813 44.2273955 -25.6875 46.9375 C-25.72069956 48.78452914 -25.75519164 50.63153552 -25.79101562 52.47851562 C-25.87562922 56.98555158 -25.94258213 61.49253888 -26 66 C-30.95 66 -35.9 66 -41 66 C-41 44.22 -41 22.44 -41 0 C-36.05 0 -31.1 0 -26 0 C-25.67 2.97 -25.34 5.94 -25 9 C-24.154375 7.906875 -23.30875 6.81375 -22.4375 5.6875 C-17.14473469 -0.40719944 -7.7153326 -3.8576663 0 0 Z " fill="#242424" transform="translate(420,654)"/>
<path d="M0 0 C5.88087691 1.99727895 8.78466298 5.615027 12.1171875 10.70703125 C14.547259 17.01876562 14.18677044 27.46575339 11.5625 33.625 C8.79401589 38.02718322 4.68902436 40.88761774 0 43 C-5.46715975 44.22052828 -10.21084196 42.71084417 -15 40 C-20.72642952 34.4037166 -23.10596135 28.49008139 -23.4375 20.5 C-23.2300204 14.24967697 -21.65313395 9.70631481 -17.24609375 5.2109375 C-11.52631937 0.17180433 -7.61622694 -0.63370763 0 0 Z " fill="#FCFCFC" transform="translate(257,666)"/>
<path d="M0 0 C5.20350034 3.58463357 8.84481999 7.88937757 10.8125 13.9375 C11.56214095 20.45061419 11.44046481 27.28739087 7.8125 32.9375 C2.94137673 38.0676196 -0.71650632 41.07897323 -7.875 41.3125 C-12.90209086 41.2642785 -16.02157261 40.72645346 -19.85546875 37.43359375 C-25.18547915 31.44710113 -25.48035363 24.52821019 -25.40625 16.9140625 C-24.96248693 10.87571506 -22.41442777 6.28519713 -18.1875 1.9375 C-12.39049593 -1.97210739 -6.50461489 -2.16820496 0 0 Z " fill="#FCFCFC" transform="translate(339.1875,667.0625)"/>
<path d="M0 0 C4.03660784 2.72236342 6.96926508 6.23054021 8.6875 10.8125 C8.6875 12.4625 8.6875 14.1125 8.6875 15.8125 C-2.2025 15.8125 -13.0925 15.8125 -24.3125 15.8125 C-21.45973926 4.40145706 -21.45973926 4.40145706 -16.1875 0.5 C-10.8085903 -2.29748792 -5.60050322 -2.00772757 0 0 Z " fill="#FCFCFC" transform="translate(659.3125,666.1875)"/>
<path d="M0 0 C2.69990662 1.79993774 4.5418865 3.083773 6 6 C6.48602588 10.29322859 6.46241608 12.32082639 4 15.9375 C0.66411401 18.23092162 -1.09984094 18.75815509 -5.0625 18.48046875 C-8.5685303 17.61102978 -10.01216563 15.91963173 -12 13 C-12.69151325 8.69725091 -12.51557405 6.79054688 -10.125 3.125 C-6.79974618 -0.20025382 -4.65430991 -0.45630489 0 0 Z " fill="#242424" transform="translate(449,626)"/>
<path d="M0 0 C2.69990662 1.79993774 4.5418865 3.083773 6 6 C6.48602588 10.29322859 6.46241608 12.32082639 4 15.9375 C0.66411401 18.23092162 -1.09984094 18.75815509 -5.0625 18.48046875 C-8.5685303 17.61102978 -10.01216563 15.91963173 -12 13 C-12.69151325 8.69725091 -12.51557405 6.79054688 -10.125 3.125 C-6.79974618 -0.20025382 -4.65430991 -0.45630489 0 0 Z " fill="#242424" transform="translate(269,626)"/>
<path d="M0 0 C3.34265205 1.20706879 3.94704566 1.92056849 6 5 C6.5493667 9.86581934 6.73490373 11.8976444 4 16 C-0.15562097 18.77041398 -2.06667872 18.70476018 -7 18 C-9.43119623 16.12984906 -10.64069173 14.71861655 -12 12 C-12.43023798 8.12785818 -12.31669086 6.47503629 -10.125 3.1875 C-6.78940571 -0.2462 -4.7066745 -0.28240047 0 0 Z " fill="#232323" transform="translate(242,626)"/>
<path d="M0 0 C5.50619612 3.26293103 5.50619612 3.26293103 6.55078125 6.9375 C6.81013892 10.85009577 6.20809832 12.68785252 4 16 C-0.15562097 18.77041398 -2.06667872 18.70476018 -7 18 C-9.43119623 16.12984906 -10.64069173 14.71861655 -12 12 C-12.43023798 8.12785818 -12.31669086 6.47503629 -10.125 3.1875 C-6.82949019 -0.20493657 -4.68335942 -0.54038763 0 0 Z " fill="#232323" transform="translate(477,626)"/>
<path d="M0 0 C1 3 1 3 0 6 C-0.11265547 7.36515314 -0.17582586 8.73477212 -0.20532227 10.10424805 C-0.22526749 10.92487228 -0.24521271 11.74549652 -0.26576233 12.59098816 C-0.29083107 13.9129998 -0.29083107 13.9129998 -0.31640625 15.26171875 C-0.33718735 16.16751175 -0.35796844 17.07330475 -0.37937927 18.00654602 C-0.44476558 20.90012016 -0.50370904 23.79378507 -0.5625 26.6875 C-0.6056956 28.64909793 -0.64931023 30.61068668 -0.69335938 32.57226562 C-0.80043582 37.38141739 -0.90173414 42.19066046 -1 47 C-5.62 47 -10.24 47 -15 47 C-15 38.42 -15 29.84 -15 21 C-14.67 21 -14.34 21 -14 21 C-14 29.25 -14 37.5 -14 46 C-10.7 46 -7.4 46 -4 46 C-4.02094727 44.9262915 -4.04189453 43.85258301 -4.06347656 42.74633789 C-4.13639829 38.72645639 -4.1819874 34.70663222 -4.21972656 30.6862793 C-4.2397241 28.95310605 -4.26693148 27.21999925 -4.30175781 25.48706055 C-4.64901503 7.75140892 -4.64901503 7.75140892 0 0 Z " fill="#2E2E2E" transform="translate(848,672)"/>
<path d="M0 0 C1.98 0.66 3.96 1.32 6 2 C5.67 2.66 5.34 3.32 5 4 C4.34 3.67 3.68 3.34 3 3 C2.34 18.18 1.68 33.36 1 49 C4.63 48.01 8.26 47.02 12 46 C12.99 46.33 13.98 46.66 15 47 C13.4447088 47.70365602 11.88035173 48.38729378 10.3125 49.0625 C9.44238281 49.44535156 8.57226562 49.82820313 7.67578125 50.22265625 C5 51 5 51 0 50 C0 33.5 0 17 0 0 Z " fill="#0B0B0B" transform="translate(437,346)"/>
<path d="M0 0 C6.27 0 12.54 0 19 0 C19.29296875 8.3984375 19.29296875 8.3984375 19 11 C18.01 11.66 17.02 12.32 16 13 C16 9.04 16 5.08 16 1 C10.72 1 5.44 1 0 1 C0 0.67 0 0.34 0 0 Z " fill="#363536" transform="translate(726,655)"/>
<path d="M0 0 C1.98 0.66 3.96 1.32 6 2 C5.67 2.66 5.34 3.32 5 4 C4.34 3.67 3.68 3.34 3 3 C2.67 12.57 2.34 22.14 2 32 C1.67 32 1.34 32 1 32 C0.67 21.44 0.34 10.88 0 0 Z " fill="#1D1D1C" transform="translate(437,346)"/>
<path d="M0 0 C0.99 0.66 1.98 1.32 3 2 C1.42039731 3.57960269 -0.19536816 3.16986544 -2.375 3.1875 C-3.16648438 3.20167969 -3.95796875 3.21585938 -4.7734375 3.23046875 C-7 3 -7 3 -10 1 C-6.87293041 -0.5635348 -3.42017557 -0.39958487 0 0 Z " fill="#323131" transform="translate(256,652)"/>
<path d="M0 0 C5.61 0.33 11.22 0.66 17 1 C17 1.33 17 1.66 17 2 C8.585 2.495 8.585 2.495 0 3 C0 2.01 0 1.02 0 0 Z " fill="#323233" transform="translate(197,627)"/>
<path d="M0 0 C0 0.99 0 1.98 0 3 C-6.0546875 3.1953125 -6.0546875 3.1953125 -8 3 C-8.66 2.34 -9.32 1.68 -10 1 C-6.56484998 0.37542727 -3.50935186 0 0 0 Z " fill="#303030" transform="translate(456,417)"/>
<path d="M0 0 C0 3.58912412 -0.66436554 4.10857029 -3 6.6875 C-3.556875 7.31011719 -4.11375 7.93273437 -4.6875 8.57421875 C-5.120625 9.04472656 -5.55375 9.51523437 -6 10 C-6.66 9.67 -7.32 9.34 -8 9 C-5.36 6.03 -2.72 3.06 0 0 Z " fill="#151515" transform="translate(710,687)"/>
<path d="M0 0 C1.21236328 0.02707031 1.21236328 0.02707031 2.44921875 0.0546875 C3.37154297 0.08949219 3.37154297 0.08949219 4.3125 0.125 C4.3125 0.455 4.3125 0.785 4.3125 1.125 C2.68931021 1.48737263 1.0638642 1.83965157 -0.5625 2.1875 C-1.46742188 2.38472656 -2.37234375 2.58195312 -3.3046875 2.78515625 C-5.6875 3.125 -5.6875 3.125 -7.6875 2.125 C-4.48369983 -0.01086678 -3.66810033 -0.10632175 0 0 Z " fill="#101010" transform="translate(511.6875,256.875)"/>
<path d="M0 0 C1.98 0.66 3.96 1.32 6 2 C5.67 2.66 5.34 3.32 5 4 C4.34 3.67 3.68 3.34 3 3 C2.34 3.99 1.68 4.98 1 6 C0 5 0 5 -0.0625 2.4375 C-0.041875 1.633125 -0.02125 0.82875 0 0 Z " fill="#121211" transform="translate(437,346)"/>
</svg>
